# xmcd
#
# Track frame offsets:
#	150
#	12184
#	29627
#	53526
#	69470
#
# Disc length: 1199 seconds
#
# Revision: 1
# Processed by: cddbd v1.5.1PL0 Copyright (c) Steve Scherf et al.
# Submitted via: audiograbber 1.83.01
#
DISCID=3804ad05
DTITLE=Wristshakers - Fresh Rye
DYEAR=1900
DGENRE=Blues
TTITLE0=Housebuilding Blues
TTITLE1=Here comes the fool
TTITLE2=Hey hey, bye bye
TTITLE3=Out of reach
TTITLE4=Stomach-ache
EXTD=
EXTT0=
EXTT1=
EXTT2=
EXTT3=
EXTT4=
PLAYORDER=
